<mxfile host="app.diagrams.net" modified="2023-09-09T04:06:36.647Z" agent="Mozilla/5.0 (Macintosh; Intel Mac OS X 10_15_7) AppleWebKit/605.1.15 (KHTML, like Gecko) Version/16.6 Safari/605.1.15" version="21.7.1" etag="n8L6NV-6cu3jOyuZ_muV" type="github">
  <diagram name="Page-1" id="h1cQveKVRlLWknsqISAb">
    <mxGraphModel>
      <root>
        <mxCell id="0" />
        <mxCell id="1" parent="0" />
      </root>
    </mxGraphModel>
  </diagram>
</mxfile>
